<svg width="100" height="33" viewBox="0 0 100 33" fill="none" xmlns="http://www.w3.org/2000/svg">
<path d="M9.71758 17.1931C7.71048 19.7421 3.73739 19.8094 1.49482 17.5257C-0.635622 15.3803 -0.373989 11.9604 1.53967 9.8337C2.4666 7.01554 6.54435 7.36687 8.69348 9.08618C11.1827 11.0933 11.7471 14.6104 9.71758 17.1931Z" fill="#FFDCDC"/>
<path d="M13.504 9.48236C11.5305 9.48236 10.7195 8.25268 10.5513 6.75763C9.91588 4.88882 10.7681 2.70232 12.8574 2.15662C13.3517 2.03206 13.8668 2.01293 14.369 2.10049C14.8712 2.18804 15.3494 2.38031 15.7724 2.66481C16.1955 2.9493 16.5539 3.31964 16.8244 3.75175C17.0949 4.18386 17.2714 4.66806 17.3425 5.17288C17.4083 5.71483 17.358 6.26457 17.1949 6.78555C17.0318 7.30654 16.7596 7.78683 16.3965 8.19449C16.0334 8.60215 15.5876 8.92783 15.0889 9.14989C14.5902 9.37194 14.0499 9.48528 13.504 9.48236Z" fill="#FFDCDC"/>
<path d="M19.7271 31.1232L19.8504 30.8914C19.0244 30.3644 18.2022 29.8299 17.3799 29.2992C16.675 28.7488 16.0332 28.1221 15.4662 27.4304C14.6963 26.5819 13.9226 25.7298 13.1489 24.8851C13.0816 24.8141 12.9957 24.7318 12.9882 24.6646C12.2227 23.8586 11.5917 22.9348 11.1194 21.9286C10.6247 21.1492 10.1778 20.3403 9.7813 19.5066C9.74019 19.4169 9.83363 19.26 9.86353 19.1329C10.0298 19.0951 10.1897 19.0334 10.3382 18.9497C10.8272 18.5216 11.1838 17.9627 11.366 17.3388C12.1547 15.3205 12.8312 13.276 12.7564 11.0671C12.7367 10.9488 12.7028 10.8334 12.6555 10.7232C12.5502 10.7791 12.4533 10.8495 12.3677 10.9325C11.8445 11.624 11.3137 12.3117 10.8204 13.0256C10.087 14.0381 9.57743 15.1949 9.32531 16.4194C9.21318 16.9987 9.19823 17.593 9.14217 18.1798C9.1087 18.1322 9.07872 18.0822 9.05246 18.0303C8.7385 17.2828 8.43576 16.5352 8.11058 15.7877C8.0657 15.7004 8.05234 15.6003 8.07277 15.5042C8.0932 15.4082 8.14617 15.3222 8.22271 15.2607C8.59912 14.908 8.94081 14.52 9.24308 14.102C10.055 12.7658 10.6445 11.3066 10.9886 9.78135C11.1126 9.23408 11.1938 8.67799 11.2315 8.11811C11.2315 7.94618 11.1119 7.76304 11.0484 7.58363C10.8712 7.64949 10.7068 7.7456 10.5625 7.86769C10.1588 8.35358 9.77382 8.85816 9.40754 9.36274C8.661 10.3041 8.13252 11.3994 7.86016 12.5696C7.75925 13.1377 7.7144 13.7171 7.63964 14.2927H7.60227L6.91828 11.5866L7.11264 11.8744C7.1894 11.7195 7.27813 11.5708 7.37801 11.4296C7.82279 10.8727 8.39464 10.3831 8.70113 9.75892C9.15201 8.79287 9.52691 7.79315 9.82241 6.76883C9.937 6.28999 9.99718 5.79975 10.0018 5.30742C10.0018 5.18408 9.91585 5.057 9.86726 4.93366C9.76635 4.97477 9.62432 4.98972 9.57199 5.06447C8.84316 6.06989 8.07694 7.05289 7.42286 8.09942C7.13714 8.65956 6.90439 9.24517 6.72766 9.84863C6.61766 9.48953 6.63751 9.10318 6.78373 8.75724C7.39657 7.20666 7.80735 5.58367 8.00593 3.92824C8.11885 2.76188 8.17001 1.59037 8.15917 0.418613C8.13817 0.273465 8.09532 0.13233 8.03209 0C7.89754 0.0672772 7.71813 0.104653 7.62843 0.213044C6.86636 1.09526 6.31543 2.1396 6.01752 3.26668C5.61385 5.01589 5.79326 6.76509 6.12591 8.49935C6.27915 9.29546 6.4436 10.0878 6.60432 10.8914C5.80821 10.5887 5.10927 10.2822 4.39165 10.0579C3.1412 9.72072 1.82914 9.68104 0.560592 9.94207C0.401234 9.99572 0.25303 10.0781 0.123291 10.185C0.202297 10.3448 0.304297 10.4921 0.426038 10.6223C1.28885 11.3235 2.36418 11.7109 3.47594 11.7212C4.35869 11.7447 5.24014 11.6389 6.09227 11.4072C6.55573 11.2764 6.61554 11.3287 6.72019 11.781C6.84727 12.3304 6.97435 12.8798 7.11638 13.4255C7.21729 13.8292 7.34063 14.2329 7.46397 14.6851C7.35558 14.6253 7.29578 14.5991 7.23972 14.5618C6.38923 13.9552 5.34271 13.6886 4.30569 13.8142C3.22178 13.9899 2.15656 14.2852 1.08386 14.5356C0.91153 14.5741 0.743679 14.6305 0.583018 14.7038C0.528903 14.7213 0.481731 14.7555 0.448273 14.8015C0.414816 14.8475 0.396793 14.9029 0.396793 14.9598C0.396793 15.0167 0.414816 15.0721 0.448273 15.1181C0.481731 15.1641 0.528903 15.1983 0.583018 15.2158C1.11467 15.485 1.67024 15.7039 2.24252 15.8699C2.93338 15.9918 3.63119 16.0705 4.33185 16.1054C5.48477 16.2165 6.64639 16.0165 7.69571 15.5261L8.9665 18.5535C7.57522 18.0275 6.06519 17.8981 4.6047 18.1798C3.48341 18.4227 2.36212 18.8152 1.27074 19.159C1.13245 19.2039 1.02406 19.3459 0.896978 19.4394C1.01284 19.5627 1.10628 19.7458 1.24831 19.8131C1.93448 20.1196 2.64449 20.3696 3.37128 20.5606C4.06515 20.6656 4.76637 20.7143 5.46809 20.7064C6.69369 20.7127 7.90315 20.427 8.9964 19.8729C9.14517 19.7984 9.2899 19.7161 9.42996 19.6262L11.908 23.8161C11.5342 23.6703 11.0969 23.4797 10.6559 23.3452C8.78709 22.7696 6.83979 22.7696 4.90371 22.9714C4.19356 23.0387 3.49089 23.1919 2.78821 23.319C2.48547 23.3751 2.41445 23.5283 2.60507 23.7152C3.20796 24.3571 3.93038 24.8751 4.73178 25.2401C6.08355 25.7899 7.52964 26.0705 8.98892 26.0662C10.2316 26.1389 11.4647 25.81 12.506 25.128C12.5843 25.0955 12.6695 25.0833 12.7538 25.0925C12.8381 25.1016 12.9187 25.1318 12.9882 25.1803C13.7992 26.0736 14.5804 26.9931 15.4102 27.9499L14.7523 27.7331C13.9103 27.4311 13.0291 27.2523 12.136 27.2024C10.4523 27.1662 8.78151 27.5032 7.24346 28.1891C6.8211 28.3611 6.38007 28.4956 5.95398 28.6526C5.85547 28.6962 5.7605 28.7475 5.66992 28.8058C5.74467 28.9142 5.797 29.0824 5.89418 29.1198C6.69029 29.4039 7.47519 29.7963 8.29746 29.8972C10.0803 30.1177 11.8818 30.3569 13.6871 30.0131C14.6103 29.8412 15.5372 29.6842 16.2848 29.0413C16.3415 28.9993 16.4015 28.9618 16.4642 28.9292C16.5988 29.0823 16.7464 29.2236 16.9052 29.3515C17.72 29.9047 18.5348 30.4728 19.3646 30.9849L19.686 31.183C19.7056 31.1678 19.7199 31.1469 19.7271 31.1232ZM9.63553 6.04747C9.26177 7.76677 8.88801 9.50477 7.49761 10.7756C8.03934 9.12831 8.75476 7.54336 9.63179 6.04747H9.63553ZM9.21692 5.92039C8.51798 7.52757 7.72187 9.3291 6.97435 11.1082C6.95566 8.97029 8.05078 7.322 9.21318 5.92039H9.21692ZM1.25205 10.1588C2.64834 9.96944 4.06984 10.1646 5.36343 10.7232L1.25205 10.2523V10.1588ZM0.792325 10.484L5.83437 11.097C4.63833 11.8146 1.59591 11.4035 0.792325 10.484ZM6.30905 7.89012C5.64002 5.27378 6.30905 1.8875 7.7742 0.538217C6.82858 2.88918 6.68281 5.39339 6.30905 7.89012ZM7.8041 1.27079C8.14048 2.18277 7.3967 6.73519 6.63796 8.14427C6.84353 5.83816 6.99304 3.52084 7.79662 1.27079H7.8041ZM6.38754 14.4459C6.67908 14.5805 6.94818 14.7561 7.22851 14.9131L7.19113 15.0439C5.2765 14.7861 3.34336 14.6923 1.41277 14.7636C3.04985 14.3113 4.67571 13.6573 6.38754 14.4459ZM1.26326 15.1934C1.88371 14.943 6.24925 15.0551 7.33316 15.3504C6.15581 16.0718 2.18272 15.9409 1.26326 15.1897V15.1934ZM8.22271 14.8197C8.93618 12.7067 9.84198 10.6636 10.9287 8.71613C10.4242 10.9101 9.88221 13.1041 8.22271 14.8047V14.8197ZM10.839 7.98356L8.03209 14.0759C7.94239 11.5866 9.45239 9.81499 10.839 7.9686V7.98356ZM1.28195 19.5702C3.60675 18.3517 7.31447 17.9144 9.0263 19.0506C8.9013 19.0495 8.77648 19.0407 8.65254 19.0245C7.34811 18.7853 6.05863 18.9759 4.77289 19.1702C3.80858 19.316 2.84428 19.458 1.87997 19.5889C1.6837 19.5914 1.48753 19.5789 1.29317 19.5515L1.28195 19.5702ZM2.2201 19.8094C4.52621 19.5291 6.80615 18.8937 9.17954 19.3235C8.17412 20.299 4.42903 20.9307 2.2201 19.8094ZM12.4612 11.8296C12.4724 11.9464 12.4724 12.0641 12.4612 12.1809C12.2593 13.1788 12.0874 14.1917 11.8258 15.171C11.558 16.0808 11.2284 16.9712 10.839 17.8359C10.6293 18.1861 10.3784 18.5098 10.0915 18.8002C10.013 18.9011 9.94202 19.0058 9.86726 19.1104C9.8411 18.9609 9.75887 18.7928 9.80372 18.6694C10.4017 17.0273 11.0085 15.389 11.6239 13.7544C11.8632 13.1078 12.1136 12.465 12.3715 11.8184L12.4612 11.8296ZM11.8407 12.2594C11.0745 14.2702 10.312 16.2848 9.5234 18.3554C9.344 15.9223 10.3756 14.0086 11.8407 12.2594ZM11.6202 24.1002L3.78242 23.547C5.26252 22.9901 9.81868 22.9378 11.6202 24.1002ZM10.4989 25.5952C8.31176 25.9623 6.06461 25.5915 4.11133 24.5412C3.80914 24.3467 3.52517 24.1253 3.26289 23.8797L3.30401 23.7974C6.30905 24.0267 9.31908 24.2584 12.3341 24.4926C12.3976 24.4926 12.4537 24.5898 12.5509 24.6758C11.9732 25.1737 11.2626 25.492 10.5064 25.5915L10.4989 25.5952ZM15.6755 28.4059C12.9246 28.5928 10.17 28.4844 7.34063 28.4807C10.1513 27.251 12.9059 27.109 15.6755 28.4059ZM15.47 29.1945C14.1465 29.6833 12.7376 29.8982 11.3287 29.8262C10.7307 29.7851 10.1364 29.7216 9.53835 29.7178C8.47643 29.679 7.43464 29.4166 6.48098 28.9479C9.68412 28.6302 12.8985 29.0151 16.1016 28.6675C16.1016 28.7087 16.1203 28.746 16.1278 28.7834C15.9253 28.9498 15.7046 29.0928 15.47 29.2095V29.1945Z" fill="white"/>
<path d="M14.7672 7.96117C14.4645 8.72738 13.8851 9.0376 13.2348 8.77971C12.9266 8.67172 12.6731 8.44728 12.5284 8.15453C12.3838 7.86178 12.3596 7.52401 12.4611 7.21365C12.6966 6.60068 13.5824 6.15964 14.1729 6.3839C14.4512 6.52501 14.6665 6.76517 14.7765 7.0571C14.8864 7.34902 14.8831 7.67155 14.7672 7.96117ZM14.4757 7.84904C14.5536 7.62963 14.5504 7.38959 14.4668 7.1723C14.3832 6.95501 14.2246 6.7748 14.0197 6.66422C13.7627 6.60653 13.4938 6.63667 13.256 6.74983C13.0182 6.86298 12.8251 7.05261 12.7078 7.2884C12.6646 7.40726 12.6459 7.53363 12.6527 7.65992C12.6596 7.7862 12.6919 7.9098 12.7478 8.02326C12.8037 8.13673 12.8819 8.23773 12.9778 8.32019C13.0737 8.40266 13.1853 8.46488 13.3058 8.50312C13.7992 8.69748 14.2439 8.44332 14.4757 7.84904Z" fill="white"/>
<path d="M4.22696 7.10146C4.33037 7.13184 4.42674 7.18243 4.51046 7.25032C4.59419 7.3182 4.66361 7.40202 4.71471 7.49693C4.76581 7.59183 4.79758 7.69593 4.80816 7.8032C4.81875 7.91046 4.80795 8.01876 4.77639 8.12183C4.73027 8.24821 4.65944 8.36415 4.56803 8.46286C4.47662 8.56158 4.36646 8.64109 4.24399 8.69676C4.12151 8.75243 3.98917 8.78315 3.85469 8.78711C3.72021 8.79107 3.58629 8.76821 3.46074 8.71985C3.27049 8.62857 3.12425 8.4655 3.05416 8.26646C2.98408 8.06742 2.99588 7.8487 3.08698 7.65836C3.12019 7.54355 3.17708 7.43697 3.25399 7.34547C3.33089 7.25398 3.4261 7.17961 3.53349 7.12715C3.64088 7.07468 3.75806 7.04529 3.8775 7.04087C3.99694 7.03645 4.11598 7.05708 4.22696 7.10146ZM4.11483 7.36309C4.03811 7.33127 3.9556 7.31577 3.87256 7.3176C3.78952 7.31942 3.70777 7.33852 3.63253 7.37369C3.55728 7.40885 3.49018 7.4593 3.43551 7.52183C3.38083 7.58435 3.33979 7.65759 3.31498 7.73685C3.25408 7.86918 3.24526 8.01958 3.29029 8.15812C3.33531 8.29665 3.43087 8.41314 3.55792 8.48438C3.74228 8.54511 3.94269 8.53469 4.11975 8.45515C4.29681 8.37561 4.43771 8.23271 4.51475 8.05455C4.53269 7.98362 4.53647 7.90986 4.52589 7.83747C4.51531 7.76508 4.49057 7.69549 4.45308 7.63266C4.4156 7.56984 4.3661 7.51502 4.30742 7.47133C4.24874 7.42764 4.18202 7.39594 4.11109 7.37804L4.11483 7.36309Z" fill="white"/>
<path d="M11.9039 5.01592C12.0908 4.58609 12.3748 4.39921 12.6514 4.52256C12.8163 4.60961 12.9447 4.7528 13.0132 4.92623C13.0818 5.09966 13.086 5.29189 13.0252 5.46817C12.9407 5.60949 12.8063 5.714 12.6485 5.76106C12.4908 5.80811 12.3211 5.79429 12.173 5.72233C12.1032 5.70106 12.0392 5.66411 11.9859 5.61431C11.9326 5.56452 11.8914 5.50319 11.8654 5.43503C11.8395 5.36686 11.8294 5.29366 11.8361 5.22102C11.8428 5.14838 11.866 5.07823 11.9039 5.01592Z" fill="white"/>
<path d="M3.75988 5.27006C3.82947 5.29818 3.89245 5.34045 3.94485 5.39419C3.99724 5.44793 4.03791 5.51196 4.06426 5.58224C4.09061 5.65251 4.10208 5.7275 4.09794 5.80244C4.0938 5.87738 4.07414 5.95064 4.0402 6.01758C3.97856 6.1563 3.86929 6.26837 3.73217 6.3335C3.59505 6.39864 3.43915 6.41252 3.29268 6.37266C3.04226 6.27174 2.96003 5.96899 3.09085 5.64382C3.22166 5.31865 3.48703 5.15793 3.75988 5.27006Z" fill="white"/>
<path d="M1.39777 6.59317C1.52858 6.2194 1.74163 6.2194 1.89861 6.32406C2.05559 6.42871 2.07801 6.60438 2.16772 6.75015C1.99978 6.84548 1.81404 6.90527 1.62202 6.92581C1.52111 6.9146 1.44636 6.66792 1.39777 6.59317Z" fill="white"/>
<path d="M14.1133 5.05693C14.0423 4.80277 13.9376 4.61963 13.9862 4.55235C14.1205 4.40466 14.2769 4.27858 14.4497 4.17859C14.5265 4.36248 14.5696 4.55874 14.5767 4.75792C14.5767 4.85884 14.345 4.9149 14.1133 5.05693Z" fill="white"/>
<path d="M20.2242 16.4679C23.2816 16.8753 24.1674 18.3853 24.1674 19.9514C24.1674 22.1491 22.4256 23.689 19.529 23.689C18.9534 23.689 17.791 23.6292 16.2062 23.6292C15.3017 23.6292 14.3374 23.6516 13.8104 23.689V23.3152C15.1223 23.2592 15.3765 23.0611 15.3765 21.6557V12.065C15.3765 10.6597 15.1223 10.4616 13.8104 10.4055V10.0317C14.3486 10.0691 15.3055 10.0878 16.1689 10.0878C17.3873 10.0878 18.6207 10.0504 19.0842 10.0504C21.7902 10.0355 23.1732 11.2913 23.1732 13.0816C23.1732 14.4496 22.3995 15.7802 20.2391 16.4455L20.2242 16.4679ZM17.1705 12.065V16.4455H18.4712C20.7437 16.4455 21.3044 14.9504 21.3044 13.2797C21.3044 11.3848 20.5307 10.4055 18.5946 10.4055C17.4247 10.4055 17.1705 10.7344 17.1705 12.065ZM22.235 19.8654C22.235 17.9032 21.2446 16.7632 18.7927 16.7632H17.1705V21.6483C17.1705 22.9975 17.4247 23.2517 18.6207 23.2517C21.1511 23.2517 22.235 22.0519 22.235 19.8654Z" fill="white"/>
<path d="M34.7149 18.7329C34.7149 22.4406 32.7826 23.9655 30.3307 23.9655C27.8788 23.9655 25.9427 22.4256 25.9427 18.7329C25.9427 15.0401 27.8751 13.4778 30.3307 13.4778C32.7863 13.4778 34.7149 15.0177 34.7149 18.7329ZM27.819 18.7329C27.819 22.1864 28.8656 23.5918 30.3307 23.5918C31.7959 23.5918 32.8387 22.1976 32.8387 18.7329C32.8387 15.2681 31.7996 13.874 30.3307 13.874C28.8618 13.874 27.819 15.2718 27.819 18.7329Z" fill="white"/>
<path d="M42.149 13.762V14.1357H39.2897V21.611C39.2897 22.8257 39.7532 23.2518 40.5269 23.2518C41.3005 23.2518 41.8649 22.6949 42.2723 21.1849L42.6461 21.2821C42.3807 22.7771 41.7005 23.9507 40.1381 23.9507C39.2486 23.9507 38.7291 23.7339 38.3067 23.3078C37.7423 22.7322 37.5592 21.9772 37.5592 20.6018V14.1469H35.6904V13.7732H37.5592V10.8205C38.148 10.8205 38.7331 10.7285 39.2934 10.5476V13.7732L42.149 13.762Z" fill="white"/>
<path d="M49.6131 14.2029C50.2261 14.8234 50.3831 15.541 50.3831 16.909V22.2799C50.3831 22.9041 50.5363 23.1956 50.9773 23.1956C51.3071 23.1779 51.6181 23.0364 51.8482 22.7994L52.065 23.1321C51.5863 23.5804 50.9566 23.8325 50.3008 23.8385C48.9515 23.8385 48.6413 23.0274 48.6413 22.1229C48.3456 22.6492 47.9136 23.0862 47.3908 23.388C46.868 23.6899 46.2736 23.8455 45.6699 23.8385C44.3767 23.8385 43.2143 23.1882 43.2143 21.6782C43.2143 20.1682 44.3954 19.4692 46.3277 18.6582C47.6209 18.1237 48.6413 17.791 48.6413 17.0173V15.8101C48.6413 14.188 47.8489 13.8665 46.8473 13.8665C46.1857 13.8665 45.3746 13.9974 44.9336 14.5543C45.1959 14.6194 45.4283 14.7718 45.5926 14.9864C45.757 15.201 45.8435 15.4651 45.8381 15.7353C45.8438 15.8808 45.8181 16.0258 45.7627 16.1604C45.7073 16.295 45.6235 16.416 45.5171 16.5154C45.4107 16.6147 45.2841 16.6899 45.146 16.7359C45.0079 16.7819 44.8615 16.7976 44.7168 16.7819C44.0553 16.7819 43.6703 16.281 43.6703 15.5821C43.6703 15.0177 44.044 14.5729 44.5748 14.2067C45.3896 13.7093 46.3302 13.4563 47.2846 13.4778C48.3573 13.4778 49.1683 13.7619 49.6131 14.2029ZM48.6413 17.7948C48.432 18.1087 48.0059 18.3031 46.7912 18.9161C45.9428 19.3235 44.9224 19.8804 44.9224 21.3717C44.9224 22.5303 45.5802 23.0686 46.4698 23.0686C47.2435 23.0686 47.9947 22.6612 48.6488 21.6071L48.6413 17.7948Z" fill="white"/>
<path d="M61.1843 14.2029C61.6665 14.7299 61.8534 15.4176 61.8534 16.7407V21.9024C61.8534 22.9788 62.2608 23.289 63.326 23.289V23.6964C62.8849 23.6964 61.8534 23.6179 61.0049 23.6179C60.1565 23.6179 59.252 23.6777 58.8446 23.6964V23.289C59.7715 23.289 60.1191 22.9788 60.1191 21.9024V16.3184C60.1191 15.1186 59.9509 14.0758 58.5531 14.0758C56.9309 14.0758 55.847 15.6232 55.847 17.5966V21.9024C55.847 22.9788 56.1946 23.289 57.129 23.289V23.6964C56.7254 23.6964 55.8096 23.6179 54.9612 23.6179C54.1128 23.6179 53.0924 23.6777 52.6401 23.6964V23.289C53.7054 23.289 54.109 22.9788 54.109 21.9024V15.8549C54.109 14.6962 53.7614 14.1468 52.6401 14.1468V13.7432C53.0438 13.7805 53.4512 13.7992 53.8362 13.7992C54.5163 13.8183 55.1951 13.7287 55.847 13.5338V15.8101C56.5273 14.0721 57.8167 13.4778 59.1399 13.4778C60.1191 13.4778 60.7433 13.7432 61.1843 14.2029Z" fill="white"/>
<path d="M67.3856 21.9024C67.3856 22.9788 67.7892 23.2891 68.8545 23.2891V23.6965C68.4134 23.6965 67.4043 23.618 66.5147 23.618C65.6252 23.618 64.6197 23.6778 64.1787 23.6965V23.2891C65.2439 23.2891 65.6476 22.9788 65.6476 21.9024V15.8549C65.6476 14.6963 65.3 14.1469 64.1787 14.1469V13.7432C64.5824 13.7806 64.9898 13.7993 65.3747 13.7993C66.0549 13.8183 66.7337 13.7287 67.3856 13.5339V21.9024ZM67.6211 10.1476C67.6218 10.3924 67.5499 10.632 67.4144 10.8359C67.2789 11.0399 67.0859 11.199 66.8599 11.2932C66.6339 11.3875 66.3851 11.4125 66.1448 11.3652C65.9046 11.3179 65.6838 11.2003 65.5104 11.0275C65.337 10.8546 65.2188 10.6342 65.1708 10.3941C65.1228 10.154 65.147 9.90504 65.2406 9.67877C65.3341 9.45249 65.4927 9.25905 65.6962 9.12294C65.8997 8.98684 66.1391 8.91419 66.3839 8.91418C66.7105 8.91709 67.0229 9.04786 67.2542 9.27844C67.4854 9.50902 67.6172 9.82104 67.6211 10.1476Z" fill="white"/>
<path d="M78.4225 22.2799C78.8636 22.8817 79.1925 23.2143 79.7681 23.2891V23.6965C79.4765 23.6965 78.7888 23.618 78.202 23.618C77.3909 23.618 76.4677 23.6778 76.0641 23.6965V23.2891C76.4378 23.2891 76.6584 23.1396 76.6584 22.9153C76.65 22.8076 76.6097 22.7047 76.5425 22.6201L74.3261 19.3758C73.8551 18.718 73.5524 18.5573 72.8759 18.5274V21.8912C72.8759 22.9677 73.2235 23.2779 74.1467 23.2779V23.6965C73.743 23.6965 72.8161 23.618 72.005 23.618C71.1192 23.618 70.11 23.6778 69.669 23.6965V23.2891C70.7342 23.2891 71.1379 22.9789 71.1379 21.9024V10.8653C71.1379 9.70659 70.7903 9.16837 69.669 9.16837V8.76097C70.0664 8.80093 70.4656 8.82089 70.865 8.82077C71.546 8.8402 72.2255 8.74675 72.8759 8.54419V18.1387C73.5094 18.0882 74.1013 17.803 74.5354 17.3388L75.9669 15.8438C76.4005 15.3915 76.5799 15.0439 76.5799 14.7785C76.5799 14.3076 75.9669 14.117 75.1558 14.117V13.7432C75.8286 13.7806 76.778 13.818 77.3349 13.818C77.9777 13.818 78.6281 13.7806 79.0168 13.7432V14.117C78.3448 14.1935 77.7253 14.5173 77.2788 15.0252L74.9316 17.4958L78.4225 22.2799Z" fill="white"/>
<path d="M86.8621 14.203C87.4751 14.8234 87.6358 15.5411 87.6358 16.909V22.28C87.6358 22.9042 87.7891 23.1957 88.2301 23.1957C88.5599 23.178 88.8709 23.0365 89.101 22.7995L89.3177 23.1322C88.839 23.5804 88.2094 23.8325 87.5536 23.8386C86.2043 23.8386 85.8903 23.0275 85.8903 22.123C85.5931 22.6521 85.1582 23.0909 84.6318 23.3929C84.1054 23.695 83.507 23.8489 82.9002 23.8386C81.6108 23.8386 80.4484 23.1882 80.4484 21.6782C80.4484 20.1682 81.6295 19.4693 83.5618 18.6582C84.855 18.1238 85.8717 17.7911 85.8717 17.0174V15.8102C85.8717 14.188 85.0793 13.8666 84.0813 13.8666C83.4198 13.8666 82.6087 13.9974 82.1677 14.5543C82.43 14.6195 82.6624 14.7719 82.8267 14.9865C82.9911 15.2011 83.0776 15.4652 83.0722 15.7354C83.0779 15.8809 83.0521 16.0258 82.9967 16.1604C82.9413 16.295 82.8576 16.4161 82.7512 16.5154C82.6448 16.6147 82.5182 16.69 82.3801 16.736C82.242 16.7819 82.0956 16.7976 81.9509 16.7819C81.2893 16.7819 80.9044 16.2811 80.9044 15.5822C80.9044 15.0178 81.2781 14.573 81.8089 14.2067C82.6226 13.7099 83.5617 13.4569 84.5149 13.4779C85.61 13.4779 86.4211 13.7619 86.8621 14.203ZM85.8903 17.7948C85.6848 18.1088 85.2587 18.3032 84.044 18.9161C83.1955 19.3235 82.1751 19.8804 82.1751 21.3717C82.1751 22.5304 82.833 23.0686 83.7188 23.0686C84.4925 23.0686 85.2475 22.6612 85.8978 21.6072L85.8903 17.7948Z" fill="white"/>
<path d="M32.6257 30.5737V31.8407H32.2893V30.8839H28.8731V27.2061H29.2244V30.5699H31.6614V27.2061H32.0127V30.5699L32.6257 30.5737Z" fill="white"/>
<path d="M36.6287 29.9009C36.6287 30.5363 36.1802 30.8876 35.2346 30.8876H33.6386V27.2061H35.1897C36.0008 27.2061 36.4979 27.5312 36.4979 28.1442C36.5024 28.3426 36.4366 28.5363 36.3121 28.6909C36.1876 28.8454 36.0125 28.951 35.8176 28.9889C35.9314 28.9936 36.0431 29.0211 36.146 29.0699C36.249 29.1187 36.341 29.1877 36.4167 29.2728C36.4924 29.3579 36.5502 29.4574 36.5866 29.5653C36.623 29.6732 36.6373 29.7873 36.6287 29.9009ZM34.0124 28.8842H35.1935C35.8214 28.8842 36.1727 28.645 36.1727 28.1853C36.1727 27.7256 35.8214 27.4939 35.1935 27.4939H34.0124V28.8842ZM36.2886 29.9009C36.2886 29.4038 35.9858 29.1758 35.2944 29.1758H34.0124V30.6148H35.2495C35.9223 30.5961 36.2886 30.3756 36.2886 29.9009Z" fill="white"/>
<path d="M41.0273 29.131H37.8653C37.8854 29.4391 37.9958 29.7343 38.1828 29.9799C38.3697 30.2255 38.625 30.4105 38.9165 30.5119C39.2081 30.6132 39.5231 30.6263 39.8221 30.5495C40.121 30.4728 40.3908 30.3096 40.5975 30.0804L40.8031 30.3121C40.6311 30.5088 40.4174 30.6646 40.1774 30.7681C39.9375 30.8716 39.6775 30.9201 39.4164 30.9101C39.1665 30.9227 38.9166 30.8832 38.6827 30.7941C38.4489 30.705 38.2361 30.5683 38.0579 30.3925C37.8797 30.2168 37.74 30.0059 37.6476 29.7733C37.5553 29.5407 37.5123 29.2914 37.5214 29.0413C37.5058 28.801 37.5395 28.56 37.6207 28.3333C37.7019 28.1065 37.8288 27.8989 37.9934 27.7231C38.1581 27.5473 38.3571 27.4072 38.578 27.3115C38.799 27.2157 39.0373 27.1663 39.2781 27.1663C39.519 27.1663 39.7572 27.2157 39.9782 27.3115C40.1992 27.4072 40.3982 27.5473 40.5628 27.7231C40.7275 27.8989 40.8543 28.1065 40.9355 28.3333C41.0167 28.56 41.0505 28.801 41.0348 29.0413C41.0348 29.06 41.0273 29.0937 41.0273 29.131ZM37.8728 28.8545H40.6909C40.6909 28.4807 40.5425 28.1223 40.2782 27.8581C40.014 27.5938 39.6556 27.4454 39.2819 27.4454C38.9081 27.4454 38.5497 27.5938 38.2855 27.8581C38.0212 28.1223 37.8728 28.4807 37.8728 28.8545Z" fill="white"/>
<path d="M44.4776 27.5238H43.0387V30.8876H42.6873V27.5238H41.2521V27.2061H44.4776V27.5238Z" fill="white"/>
<path d="M48.077 29.699C48.077 30.4802 47.5575 30.9063 46.6007 30.8988H45.2252V27.2061H45.599V28.5329H46.6941C47.5911 28.5516 48.077 28.9553 48.077 29.699ZM47.7257 29.699C47.7257 29.101 47.3519 28.8282 46.6044 28.8132H45.599V30.611H46.6044C47.3407 30.6484 47.7257 30.3045 47.7257 29.699ZM48.7535 27.2061H49.1086V30.8839H48.7535V27.2061Z" fill="white"/>
<path d="M55.4175 29.9009C55.4175 30.5363 54.9653 30.8876 54.0234 30.8876H52.4312V27.2061H53.9823C54.7896 27.2061 55.2904 27.5312 55.2904 28.1442C55.2941 28.343 55.2275 28.5367 55.1023 28.6912C54.9772 28.8457 54.8016 28.9511 54.6064 28.9889C54.7202 28.9936 54.8319 29.0211 54.9348 29.0699C55.0378 29.1187 55.1298 29.1877 55.2055 29.2728C55.2812 29.3579 55.339 29.4574 55.3754 29.5653C55.4118 29.6732 55.4261 29.7873 55.4175 29.9009ZM52.775 28.888H53.9598C54.5878 28.888 54.9391 28.6488 54.9391 28.189C54.9391 27.7293 54.5878 27.4976 53.9598 27.4976H52.775V28.888ZM55.0662 29.9009C55.0662 29.4038 54.7634 29.1758 54.072 29.1758H52.775V30.6148H54.0159C54.6999 30.5961 55.0662 30.3756 55.0662 29.9009Z" fill="white"/>
<path d="M62.6646 25.9541V30.884H62.2909V26.2755H58.9532V30.884H58.5794V25.9541H62.6646Z" fill="white"/>
<path d="M67.4451 29.131H64.2869C64.3069 29.4391 64.4173 29.7343 64.6043 29.9799C64.7913 30.2255 65.0465 30.4105 65.3381 30.5119C65.6297 30.6132 65.9446 30.6263 66.2436 30.5495C66.5426 30.4728 66.8123 30.3096 67.0191 30.0804L67.2246 30.3121C67.0527 30.5088 66.8389 30.6646 66.599 30.7681C66.3591 30.8716 66.0991 30.9201 65.838 30.9101C65.588 30.9227 65.3382 30.8832 65.1043 30.7941C64.8704 30.705 64.6577 30.5683 64.4795 30.3925C64.3013 30.2168 64.1616 30.0059 64.0692 29.7733C63.9769 29.5407 63.9339 29.2914 63.943 29.0413C63.9273 28.801 63.9611 28.56 64.0423 28.3333C64.1235 28.1065 64.2503 27.8989 64.415 27.7231C64.5796 27.5473 64.7786 27.4072 64.9996 27.3115C65.2206 27.2157 65.4588 27.1663 65.6997 27.1663C65.9405 27.1663 66.1788 27.2157 66.3998 27.3115C66.6207 27.4072 66.8197 27.5473 66.9844 27.7231C67.149 27.8989 67.2759 28.1065 67.3571 28.3333C67.4382 28.56 67.472 28.801 67.4564 29.0413C67.4526 29.06 67.4451 29.0937 67.4451 29.131ZM64.2869 28.8545H67.105C67.105 28.4807 66.9566 28.1223 66.6923 27.8581C66.4281 27.5938 66.0697 27.4454 65.6959 27.4454C65.3222 27.4454 64.9638 27.5938 64.6996 27.8581C64.4353 28.1223 64.2869 28.4807 64.2869 28.8545Z" fill="white"/>
<path d="M70.8914 27.5238H69.4525V30.8876H69.1011V27.5238H67.6509V27.2061H70.8765L70.8914 27.5238Z" fill="white"/>
<path d="M74.6102 29.131H71.4482C71.4682 29.439 71.5786 29.7343 71.7656 29.9799C71.9526 30.2255 72.2078 30.4105 72.4994 30.5118C72.791 30.6131 73.106 30.6262 73.4049 30.5495C73.7039 30.4727 73.9736 30.3096 74.1804 30.0803L74.3822 30.3121C74.2104 30.509 73.9967 30.6649 73.7567 30.7684C73.5168 30.8719 73.2567 30.9203 72.9955 30.9101C72.7456 30.9227 72.4958 30.8832 72.2619 30.7941C72.028 30.705 71.8152 30.5682 71.637 30.3925C71.4588 30.2167 71.3191 30.0059 71.2268 29.7733C71.1344 29.5407 71.0914 29.2914 71.1006 29.0413C71.0852 28.801 71.1194 28.5602 71.201 28.3337C71.2826 28.1072 71.4099 27.8999 71.575 27.7246C71.7401 27.5494 71.9394 27.4099 72.1606 27.3149C72.3819 27.22 72.6202 27.1715 72.861 27.1725C73.1021 27.1698 73.3411 27.2171 73.5629 27.3116C73.7847 27.406 73.9845 27.5455 74.1497 27.7212C74.3148 27.8968 74.4417 28.1049 74.5222 28.3321C74.6028 28.5593 74.6353 28.8008 74.6177 29.0413C74.6177 29.06 74.6102 29.0936 74.6102 29.131ZM71.4556 28.8544H74.2701C74.2515 28.4937 74.0951 28.154 73.8332 27.9053C73.5714 27.6565 73.224 27.5179 72.8629 27.5179C72.5017 27.5179 72.1543 27.6565 71.8925 27.9053C71.6306 28.154 71.4742 28.4937 71.4556 28.8544Z" fill="white"/>
<path d="M79.4352 29.0451C79.4476 29.2897 79.4094 29.5342 79.323 29.7633C79.2366 29.9924 79.1038 30.2012 78.9329 30.3767C78.762 30.5521 78.5568 30.6904 78.33 30.7828C78.1032 30.8752 77.8598 30.9199 77.615 30.9139C77.3102 30.9231 77.0088 30.8472 76.7447 30.6947C76.4807 30.5422 76.2643 30.3191 76.12 30.0505V32.2557H75.7686V27.2062H76.105V28.0733C76.2449 27.7988 76.4594 27.5694 76.7239 27.4114C76.9884 27.2533 77.292 27.1732 77.6 27.18C77.8456 27.1725 78.0901 27.2159 78.3181 27.3074C78.5461 27.3989 78.7528 27.5365 78.9251 27.7116C79.0974 27.8867 79.2317 28.0956 79.3195 28.3251C79.4073 28.5545 79.4467 28.7997 79.4352 29.0451ZM79.0802 29.0451C79.0692 28.752 78.9722 28.4687 78.8014 28.2303C78.6306 27.9919 78.3934 27.8091 78.1194 27.7045C77.8455 27.5999 77.5468 27.5781 77.2606 27.642C76.9744 27.7059 76.7132 27.8525 76.5097 28.0636C76.3062 28.2748 76.1693 28.5411 76.116 28.8295C76.0627 29.1179 76.0954 29.4156 76.21 29.6855C76.3246 29.9554 76.5161 30.1857 76.7606 30.3476C77.0051 30.5096 77.2918 30.596 77.5851 30.5962C77.7875 30.6007 77.9886 30.5632 78.1757 30.4861C78.3628 30.409 78.532 30.2939 78.6725 30.1482C78.8129 30.0025 78.9217 29.8292 78.9918 29.6393C79.062 29.4495 79.0921 29.2472 79.0802 29.0451Z" fill="white"/>
<path d="M84.0479 29.0749C84.0612 29.3185 84.0233 29.5621 83.9368 29.7901C83.8504 30.0182 83.7171 30.2257 83.5457 30.3992C83.3743 30.5727 83.1685 30.7085 82.9415 30.7977C82.7145 30.887 82.4714 30.9278 82.2277 30.9176C81.0055 30.9176 80.329 29.9682 80.329 28.518C80.329 26.8473 80.9345 26.1222 82.1716 25.8269L83.8087 25.4158L83.8648 25.7484L82.3137 26.1222C81.1924 26.3838 80.6953 26.9594 80.6728 28.3648C80.7905 28.0345 81.0106 27.7505 81.3011 27.5541C81.5916 27.3578 81.9372 27.2594 82.2875 27.2734C82.5244 27.2652 82.7604 27.3065 82.9805 27.3947C83.2005 27.4829 83.3997 27.616 83.5654 27.7855C83.7311 27.9551 83.8595 28.1573 83.9426 28.3793C84.0257 28.6013 84.0616 28.8382 84.0479 29.0749ZM83.6741 29.0749C83.6841 28.8785 83.6541 28.6822 83.5858 28.4977C83.5175 28.3133 83.4124 28.1447 83.277 28.0022C83.1415 27.8597 82.9785 27.7462 82.7978 27.6686C82.617 27.5911 82.4225 27.5511 82.2258 27.5511C82.0292 27.5511 81.8346 27.5911 81.6539 27.6686C81.4732 27.7462 81.3101 27.8597 81.1747 28.0022C81.0392 28.1447 80.9341 28.3133 80.8659 28.4977C80.7976 28.6822 80.7675 28.8785 80.7775 29.0749C80.7675 29.2713 80.7976 29.4677 80.8659 29.6521C80.9341 29.8365 81.0392 30.0051 81.1747 30.1476C81.3101 30.2901 81.4732 30.4036 81.6539 30.4812C81.8346 30.5587 82.0292 30.5987 82.2258 30.5987C82.4225 30.5987 82.617 30.5587 82.7978 30.4812C82.9785 30.4036 83.1415 30.2901 83.277 30.1476C83.4124 30.0051 83.5175 29.8365 83.5858 29.6521C83.6541 29.4677 83.6841 29.2713 83.6741 29.0749Z" fill="white"/>
<path d="M88.0881 27.2061L86.2006 31.3959C85.9053 32.0724 85.539 32.2892 85.0531 32.2892C84.896 32.2936 84.7397 32.2665 84.5933 32.2093C84.4469 32.1522 84.3135 32.0662 84.2009 31.9566L84.3766 31.6912C84.4632 31.7856 84.5691 31.8601 84.6871 31.9098C84.8052 31.9595 84.9326 31.9831 85.0606 31.979C85.397 31.979 85.6437 31.8257 85.8716 31.3249L86.066 30.8801L84.414 27.2173H84.7877L86.2604 30.5064L87.733 27.2173L88.0881 27.2061Z" fill="white"/>
<path d="M92.6107 29.045C92.6237 29.2894 92.586 29.5339 92.5 29.763C92.414 29.9921 92.2815 30.201 92.1109 30.3764C91.9404 30.5519 91.7353 30.6903 91.5088 30.7827C91.2822 30.8752 91.0389 30.9199 90.7943 30.9138C90.4897 30.9218 90.1888 30.8454 89.925 30.693C89.6611 30.5406 89.4446 30.3182 89.2992 30.0505V32.2557H88.9554V27.2061H89.2955V28.0733C89.4354 27.7988 89.6499 27.5693 89.9144 27.4113C90.1788 27.2533 90.4825 27.1731 90.7905 27.18C91.035 27.174 91.2781 27.2186 91.5046 27.3108C91.7311 27.403 91.9362 27.5409 92.107 27.7159C92.2778 27.891 92.4107 28.0993 92.4974 28.328C92.584 28.5567 92.6226 28.8008 92.6107 29.045ZM92.2594 29.045C92.2484 28.752 92.1515 28.4686 91.9806 28.2303C91.8098 27.9919 91.5727 27.809 91.2987 27.7044C91.0247 27.5998 90.7261 27.5781 90.4398 27.6419C90.1536 27.7058 89.8925 27.8524 89.689 28.0636C89.4855 28.2747 89.3485 28.5411 89.2953 28.8294C89.242 29.1178 89.2747 29.4155 89.3893 29.6854C89.5039 29.9554 89.6954 30.1856 89.9399 30.3476C90.1844 30.5095 90.4711 30.5959 90.7644 30.5962C90.9667 30.6006 91.1678 30.5631 91.355 30.486C91.5421 30.4089 91.7112 30.2939 91.8517 30.1481C91.9922 30.0024 92.1009 29.8291 92.1711 29.6393C92.2413 29.4494 92.2713 29.2471 92.2594 29.045Z" fill="white"/>
<path d="M96.2733 27.5238H94.1092V30.8876H93.7578V27.2061H96.2733V27.5238Z" fill="white"/>
<path d="M99.9923 29.131H96.8303C96.8503 29.439 96.9608 29.7343 97.1477 29.9799C97.3347 30.2255 97.5899 30.4105 97.8815 30.5118C98.1731 30.6131 98.4881 30.6262 98.787 30.5495C99.086 30.4727 99.3558 30.3096 99.5625 30.0803L99.7681 30.3121C99.5954 30.5089 99.3809 30.6647 99.1404 30.7681C98.8999 30.8716 98.6393 30.9201 98.3777 30.9101C98.1277 30.9227 97.8779 30.8832 97.644 30.7941C97.4101 30.705 97.1973 30.5682 97.0191 30.3925C96.8409 30.2167 96.7012 30.0059 96.6089 29.7733C96.5165 29.5407 96.4736 29.2914 96.4827 29.0413C96.4673 28.8007 96.5016 28.5595 96.5834 28.3328C96.6652 28.106 96.7929 27.8985 96.9584 27.7232C97.1238 27.5479 97.3236 27.4086 97.5453 27.3138C97.767 27.2191 98.0058 27.171 98.2468 27.1725C98.4878 27.1697 98.7266 27.2171 98.9483 27.3116C99.1699 27.4061 99.3695 27.5456 99.5343 27.7213C99.6992 27.8971 99.8257 28.1052 99.9058 28.3324C99.9859 28.5596 100.018 28.801 99.9998 29.0413C99.9998 29.06 99.9923 29.0936 99.9923 29.131ZM96.8377 28.8544H99.6522C99.6336 28.4937 99.4772 28.154 99.2154 27.9053C98.9535 27.6565 98.6061 27.5179 98.245 27.5179C97.8838 27.5179 97.5364 27.6565 97.2746 27.9053C97.0127 28.154 96.8563 28.4937 96.8377 28.8544Z" fill="white"/>
</svg>
